<svg id="AKTIO_HOLDINGS" data-name="AKTIO HOLDINGS" xmlns="http://www.w3.org/2000/svg" viewBox="0 0 490.43 52.73"><defs><style>.cls-1{fill:#231815;}</style></defs><path class="cls-1" d="M0,51.88,14.13.86H28.2l13.85,51H30.81L28,40.57H13.43l-2.9,11.31Zm20.57-41.2h-.15l-4.87,22H25.72Z"/><path class="cls-1" d="M69.62.86H81.35L67.07,23.75,81.35,51.88h-12L57.11,25.73H57V51.88H46.3V.86H57V22.7h.14Z"/><path class="cls-1" d="M117.89.86V9.34H106V51.88H95.35V9.34H83.48V.86Z"/><path class="cls-1" d="M123.22,51.88V.86h10.67v51Z"/><path class="cls-1" d="M140.12,26.37c0-13.5,0-26.37,17.6-26.37s17.6,12.87,17.6,26.37,0,26.36-17.6,26.36S140.12,39.73,140.12,26.37Zm24.39,0c0-13.08-.78-18.73-6.79-18.73s-6.78,5.65-6.78,18.73.77,18.73,6.78,18.73S164.51,39.44,164.51,26.37Z"/><path class="cls-1" d="M223.73,21.28V.85H234.4v51H223.73V29.12H211.5V51.88H200.83V.85H211.5V21.28Z"/><path class="cls-1" d="M240.69,26.36c0-13.5,0-26.36,17.6-26.36s17.59,12.86,17.59,26.36,0,26.36-17.59,26.36S240.69,39.72,240.69,26.36Zm24.38,0c0-13.07-.78-18.73-6.78-18.73s-6.79,5.66-6.79,18.73.78,18.73,6.79,18.73S265.07,39.44,265.07,26.36Z"/><path class="cls-1" d="M282.17,51.88V.85h10.67V43.4h16v8.48Z"/><path class="cls-1" d="M314.18.85H332c14,0,16.61,9.33,16.61,25.23,0,7.84,1.2,25.8-17,25.8H314.18ZM324.85,44H330c6.5,0,7.78-4.88,7.78-17.67,0-9.4,0-17.66-7.42-17.66h-5.52Z"/><path class="cls-1" d="M354.89,51.88V.85h10.67v51Z"/><path class="cls-1" d="M373.19,51.88V.85h14.42l13.57,35.34h.14V.85h10v51H397.22L383.3,14.56h-.14V51.88Z"/><path class="cls-1" d="M441.31,16.54c.08-4.74-.7-8.91-6.35-8.91-6.65,0-6.65,9-6.65,18.87,0,16,1.56,18.8,7.63,18.8a16.59,16.59,0,0,0,5.3-1V33h-5.79V25.16h16.47V51a98.37,98.37,0,0,1-14.42,1.69c-17.95,0-20-7.42-20-26.78,0-12.86.63-25.94,18.09-25.94,10.46,0,17,5.87,16.33,16.54Z"/><path class="cls-1" d="M472.62,52.72c-13.22,0-15.69-7.77-15.12-16.6h10.67c0,4.87.21,9,6.07,9,3.61,0,5.38-2.33,5.38-5.79,0-9.19-21.49-9.76-21.49-24.95C458.13,6.36,462,0,475,0c10.39,0,15.55,4.67,14.84,15.34H479.4c0-3.82-.63-7.71-4.94-7.71-3.47,0-5.52,1.91-5.52,5.45,0,9.68,21.49,8.83,21.49,24.87C490.43,51.17,480.75,52.72,472.62,52.72Z"/></svg>